<svg width="1087" height="1174" viewBox="0 0 1087 1174" fill="none" xmlns="http://www.w3.org/2000/svg">
<g clip-path="url(#clip0_93_181)">
<path d="M239.781 69.4231H277.947V82.5385H254.208V108.114H272.832V121.229H254.208V161.231H239.781V69.4231ZM305.719 162.542C298.636 162.542 293.215 160.531 289.456 156.509C285.696 152.487 283.816 146.804 283.816 139.459V91.1947C283.816 83.8501 285.696 78.1667 289.456 74.1447C293.215 70.1226 298.636 68.1116 305.719 68.1116C312.801 68.1116 318.222 70.1226 321.982 74.1447C325.742 78.1667 327.621 83.8501 327.621 91.1947V139.459C327.621 146.804 325.742 152.487 321.982 156.509C318.222 160.531 312.801 162.542 305.719 162.542ZM305.719 149.427C310.703 149.427 313.194 146.41 313.194 140.377V90.2766C313.194 84.2435 310.703 81.227 305.719 81.227C300.735 81.227 298.243 84.2435 298.243 90.2766V140.377C298.243 146.41 300.735 149.427 305.719 149.427ZM337.378 69.4231H355.477L369.511 124.377H369.773V69.4231H382.626V161.231H367.806L350.493 94.2112H350.231V161.231H337.378V69.4231ZM393.349 69.4231H415.383C422.553 69.4231 427.93 71.3467 431.515 75.1939C435.1 79.0411 436.892 84.6807 436.892 92.1128V138.541C436.892 145.973 435.1 151.613 431.515 155.46C427.93 159.307 422.553 161.231 415.383 161.231H393.349V69.4231ZM415.12 148.115C417.481 148.115 419.274 147.416 420.498 146.017C421.809 144.618 422.465 142.345 422.465 139.197V91.457C422.465 88.3093 421.809 86.036 420.498 84.637C419.274 83.238 417.481 82.5385 415.12 82.5385H407.776V148.115H415.12ZM457.522 69.4231H477.064L492.016 161.231H477.589L474.966 143V143.263H458.571L455.948 161.231H442.571L457.522 69.4231ZM473.261 130.803L466.834 85.4239H466.572L460.276 130.803H473.261ZM499.015 69.4231H517.114L531.148 124.377H531.41V69.4231H544.263V161.231H529.443L512.13 94.2112H511.868V161.231H499.015V69.4231ZM566.265 82.5385H551.182V69.4231H595.775V82.5385H580.692V161.231H566.265V82.5385ZM623.765 69.4231H661.93V82.5385H638.192V108.114H656.815V121.229H638.192V161.231H623.765V69.4231ZM668.849 69.4231H683.276V161.231H668.849V69.4231ZM714.541 162.542C707.546 162.542 702.212 160.575 698.54 156.64C694.868 152.618 693.031 146.891 693.031 139.459V91.1947C693.031 83.7626 694.868 78.0793 698.54 74.1447C702.212 70.1226 707.546 68.1116 714.541 68.1116C721.535 68.1116 726.869 70.1226 730.541 74.1447C734.214 78.0793 736.05 83.7626 736.05 91.1947V99.0639H722.41V90.2766C722.41 84.2435 719.918 81.227 714.934 81.227C709.95 81.227 707.458 84.2435 707.458 90.2766V140.509C707.458 146.454 709.95 149.427 714.934 149.427C719.918 149.427 722.41 146.454 722.41 140.509V122.54H715.196V109.425H736.05V139.459C736.05 146.891 734.214 152.618 730.541 156.64C726.869 160.575 721.535 162.542 714.541 162.542ZM766.297 162.542C759.302 162.542 753.969 160.575 750.296 156.64C746.624 152.618 744.788 146.891 744.788 139.459V69.4231H759.215V140.509C759.215 143.656 759.827 145.93 761.051 147.329C762.363 148.728 764.199 149.427 766.559 149.427C768.92 149.427 770.713 148.728 771.937 147.329C773.248 145.93 773.904 143.656 773.904 140.509V69.4231H787.806V139.459C787.806 146.891 785.97 152.618 782.298 156.64C778.626 160.575 773.292 162.542 766.297 162.542ZM798.081 69.4231H819.46C826.892 69.4231 832.313 71.1719 835.723 74.6693C839.133 78.0793 840.838 83.3692 840.838 90.5389V96.1785C840.838 105.709 837.69 111.742 831.395 114.278V114.54C834.892 115.589 837.34 117.731 838.739 120.967C840.226 124.202 840.969 128.53 840.969 133.951V150.083C840.969 152.706 841.056 154.848 841.231 156.509C841.406 158.083 841.843 159.657 842.543 161.231H827.853C827.329 159.744 826.979 158.345 826.804 157.034C826.629 155.722 826.542 153.362 826.542 149.952V133.164C826.542 128.967 825.842 126.038 824.443 124.377C823.132 122.715 820.815 121.885 817.492 121.885H812.508V161.231H798.081V69.4231ZM817.755 108.769C820.64 108.769 822.782 108.026 824.181 106.54C825.667 105.053 826.411 102.561 826.411 99.0639V91.9816C826.411 88.659 825.799 86.2546 824.575 84.7681C823.438 83.2817 821.602 82.5385 819.066 82.5385H812.508V108.769H817.755ZM862.127 69.4231H881.669L896.62 161.231H882.193L879.57 143V143.263H863.176L860.553 161.231H847.175L862.127 69.4231ZM877.865 130.803L871.439 85.4239H871.176L864.881 130.803H877.865ZM873.275 48.1762H889.013L874.98 63.2589H864.094L873.275 48.1762ZM903.619 69.4231H918.046V108.114L936.408 69.4231H950.835L933.654 103.13L951.097 161.231H936.014L923.817 120.311L918.046 131.984V161.231H903.619V69.4231Z" fill="#473939"/>
<path d="M300.986 401.68H315.413V440.37L333.775 401.68H348.202L331.02 435.386L348.464 493.487H333.381L321.184 452.567L315.413 464.24V493.487H300.986V401.68ZM355.292 401.68H369.719V480.372H393.458V493.487H355.292V401.68ZM412.037 401.68H431.579L446.53 493.487H432.103L429.48 475.257V475.519H413.086L410.463 493.487H397.085L412.037 401.68ZM427.775 463.06L421.349 417.68H421.086L414.791 463.06H427.775ZM471.9 494.799C464.905 494.799 459.615 492.831 456.031 488.897C452.446 484.875 450.653 479.148 450.653 471.716V466.47H464.293V472.765C464.293 478.711 466.785 481.683 471.769 481.683C474.217 481.683 476.053 480.984 477.277 479.585C478.589 478.099 479.245 475.738 479.245 472.503C479.245 468.655 478.37 465.289 476.622 462.404C474.873 459.431 471.638 455.89 466.916 451.78C460.971 446.534 456.817 441.813 454.457 437.616C452.096 433.331 450.916 428.522 450.916 423.189C450.916 415.932 452.752 410.336 456.424 406.401C460.096 402.379 465.43 400.368 472.425 400.368C479.332 400.368 484.535 402.379 488.032 406.401C491.617 410.336 493.409 416.019 493.409 423.451V427.255H479.769V422.533C479.769 419.385 479.157 417.112 477.933 415.713C476.709 414.227 474.917 413.483 472.556 413.483C467.747 413.483 465.342 416.413 465.342 422.271C465.342 425.593 466.217 428.697 467.966 431.583C469.802 434.468 473.081 437.965 477.802 442.075C483.835 447.321 487.988 452.086 490.262 456.371C492.535 460.655 493.672 465.683 493.672 471.453C493.672 478.973 491.792 484.744 488.032 488.766C484.36 492.788 478.982 494.799 471.9 494.799ZM520.699 494.799C513.704 494.799 508.414 492.831 504.829 488.897C501.244 484.875 499.452 479.148 499.452 471.716V466.47H513.092V472.765C513.092 478.711 515.584 481.683 520.567 481.683C523.016 481.683 524.852 480.984 526.076 479.585C527.387 478.099 528.043 475.738 528.043 472.503C528.043 468.655 527.169 465.289 525.42 462.404C523.671 459.431 520.436 455.89 515.715 451.78C509.769 446.534 505.616 441.813 503.255 437.616C500.894 433.331 499.714 428.522 499.714 423.189C499.714 415.932 501.55 410.336 505.222 406.401C508.895 402.379 514.228 400.368 521.223 400.368C528.131 400.368 533.333 402.379 536.831 406.401C540.415 410.336 542.208 416.019 542.208 423.451V427.255H528.568V422.533C528.568 419.385 527.956 417.112 526.732 415.713C525.508 414.227 523.715 413.483 521.354 413.483C516.545 413.483 514.141 416.413 514.141 422.271C514.141 425.593 515.015 428.697 516.764 431.583C518.6 434.468 521.879 437.965 526.601 442.075C532.634 447.321 536.787 452.086 539.06 456.371C541.333 460.655 542.47 465.683 542.47 471.453C542.47 478.973 540.59 484.744 536.831 488.766C533.158 492.788 527.781 494.799 520.699 494.799ZM547.857 480.634L574.612 414.795H549.168V401.68H590.088V414.533L563.333 480.372H590.088V493.487H547.857V480.634ZM598.26 401.68H612.687V493.487H598.26V401.68ZM623.491 401.68H637.918V440.37L656.28 401.68H670.707L653.526 435.386L670.969 493.487H655.886L643.689 452.567L637.918 464.24V493.487H623.491V401.68ZM698.654 494.799C691.659 494.799 686.325 492.831 682.653 488.897C678.981 484.875 677.145 479.148 677.145 471.716V401.68H691.572V472.765C691.572 475.913 692.184 478.186 693.408 479.585C694.719 480.984 696.555 481.683 698.916 481.683C701.277 481.683 703.069 480.984 704.293 479.585C705.605 478.186 706.261 475.913 706.261 472.765V401.68H720.163V471.716C720.163 479.148 718.327 484.875 714.655 488.897C710.982 492.831 705.649 494.799 698.654 494.799ZM749.193 494.799C742.198 494.799 736.908 492.831 733.324 488.897C729.739 484.875 727.946 479.148 727.946 471.716V466.47H741.586V472.765C741.586 478.711 744.078 481.683 749.062 481.683C751.51 481.683 753.346 480.984 754.57 479.585C755.882 478.099 756.538 475.738 756.538 472.503C756.538 468.655 755.663 465.289 753.915 462.404C752.166 459.431 748.931 455.89 744.209 451.78C738.264 446.534 734.11 441.813 731.75 437.616C729.389 433.331 728.209 428.522 728.209 423.189C728.209 415.932 730.045 410.336 733.717 406.401C737.389 402.379 742.723 400.368 749.718 400.368C756.625 400.368 761.828 402.379 765.325 406.401C768.91 410.336 770.702 416.019 770.702 423.451V427.255H757.062V422.533C757.062 419.385 756.45 417.112 755.226 415.713C754.002 414.227 752.21 413.483 749.849 413.483C745.04 413.483 742.635 416.413 742.635 422.271C742.635 425.593 743.51 428.697 745.259 431.583C747.095 434.468 750.374 437.965 755.095 442.075C761.128 447.321 765.281 452.086 767.555 456.371C769.828 460.655 770.965 465.683 770.965 471.453C770.965 478.973 769.085 484.744 765.325 488.766C761.653 492.788 756.275 494.799 749.193 494.799Z" fill="#FF7F7F"/>
<path d="M543.621 797.327H558.048V836.017L576.409 797.327H590.836L573.655 831.033L591.099 889.135H576.016L563.819 848.215L558.048 859.887V889.135H543.621V797.327ZM618.783 890.446C611.789 890.446 606.455 888.479 602.783 884.544C599.11 880.522 597.274 874.795 597.274 867.363V797.327H611.701V868.412C611.701 871.56 612.313 873.833 613.537 875.232C614.849 876.631 616.685 877.331 619.046 877.331C621.406 877.331 623.199 876.631 624.423 875.232C625.735 873.833 626.39 871.56 626.39 868.412V797.327H640.293V867.363C640.293 874.795 638.456 880.522 634.784 884.544C631.112 888.479 625.778 890.446 618.783 890.446ZM602.258 777.785H615.111V791.163H602.258V777.785ZM622.456 777.785H635.309V791.163H622.456V777.785ZM650.568 797.327H664.995V876.019H688.733V889.135H650.568V797.327ZM715.993 890.446C708.911 890.446 703.49 888.435 699.73 884.413C695.97 880.391 694.09 874.708 694.09 867.363V819.098C694.09 811.754 695.97 806.071 699.73 802.048C703.49 798.026 708.911 796.015 715.993 796.015C723.075 796.015 728.496 798.026 732.256 802.048C736.016 806.071 737.896 811.754 737.896 819.098V867.363C737.896 874.708 736.016 880.391 732.256 884.413C728.496 888.435 723.075 890.446 715.993 890.446ZM715.993 877.331C720.977 877.331 723.469 874.314 723.469 868.281V818.18C723.469 812.147 720.977 809.131 715.993 809.131C711.009 809.131 708.517 812.147 708.517 818.18V868.281C708.517 874.314 711.009 877.331 715.993 877.331ZM699.468 777.785H712.321V791.163H699.468V777.785ZM719.665 777.785H732.518V791.163H719.665V777.785ZM747.652 797.327H765.752L779.785 852.28H780.047V797.327H792.9V889.135H778.08L760.768 822.115H760.505V889.135H747.652V797.327ZM803.623 797.327H818.05V876.019H841.789V889.135H803.623V797.327ZM848.707 797.327H888.053V810.442H863.134V834.706H882.938V847.821H863.134V876.019H888.053V889.135H848.707V797.327ZM916.813 890.446C909.818 890.446 904.485 888.479 900.812 884.544C897.14 880.522 895.304 874.795 895.304 867.363V819.098C895.304 811.666 897.14 805.983 900.812 802.048C904.485 798.026 909.818 796.015 916.813 796.015C923.808 796.015 929.142 798.026 932.814 802.048C936.486 805.983 938.322 811.666 938.322 819.098V826.968H924.682V818.18C924.682 812.147 922.19 809.131 917.207 809.131C912.223 809.131 909.731 812.147 909.731 818.18V868.412C909.731 874.358 912.223 877.331 917.207 877.331C922.19 877.331 924.682 874.358 924.682 868.412V850.444H917.469V837.329H938.322V867.363C938.322 874.795 936.486 880.522 932.814 884.544C929.142 888.479 923.808 890.446 916.813 890.446ZM947.585 797.327H986.931V810.442H962.012V834.706H981.816V847.821H962.012V876.019H986.931V889.135H947.585V797.327ZM1014.24 890.446C1007.25 890.446 1001.96 888.479 998.372 884.544C994.787 880.522 992.995 874.795 992.995 867.363V862.117H1006.64V868.412C1006.64 874.358 1009.13 877.331 1014.11 877.331C1016.56 877.331 1018.4 876.631 1019.62 875.232C1020.93 873.746 1021.59 871.385 1021.59 868.15C1021.59 864.303 1020.71 860.937 1018.96 858.051C1017.21 855.078 1013.98 851.537 1009.26 847.428C1003.31 842.182 999.159 837.46 996.798 833.263C994.438 828.979 993.257 824.17 993.257 818.836C993.257 811.579 995.093 805.983 998.766 802.048C1002.44 798.026 1007.77 796.015 1014.77 796.015C1021.67 796.015 1026.88 798.026 1030.37 802.048C1033.96 805.983 1035.75 811.666 1035.75 819.098V822.902H1022.11V818.18C1022.11 815.033 1021.5 812.759 1020.28 811.36C1019.05 809.874 1017.26 809.131 1014.9 809.131C1010.09 809.131 1007.68 812.06 1007.68 817.918C1007.68 821.241 1008.56 824.345 1010.31 827.23C1012.14 830.115 1015.42 833.613 1020.14 837.722C1026.18 842.968 1030.33 847.734 1032.6 852.018C1034.88 856.302 1036.01 861.33 1036.01 867.101C1036.01 874.62 1034.13 880.391 1030.37 884.413C1026.7 888.435 1021.32 890.446 1014.24 890.446Z" fill="#FF7F7F"/>
<path d="M38.6786 1066.19H59.2697L68.4505 1131.9H68.7128L77.8936 1066.19H98.4847V1158H84.8447V1088.49H84.5824L74.0901 1158H62.024L51.5317 1088.49H51.2693V1158H38.6786V1066.19ZM109.251 1066.19H148.597V1079.31H123.678V1103.57H143.482V1116.69H123.678V1144.88H148.597V1158H109.251V1066.19ZM156.896 1066.19H174.996L189.029 1121.15H189.291V1066.19H202.144V1158H187.324L170.012 1090.98H169.749V1158H156.896V1066.19ZM224.146 1079.31H209.064V1066.19H253.656V1079.31H238.573V1158H224.146V1079.31ZM260.641 1066.19H299.987V1079.31H275.068V1103.57H294.872V1116.69H275.068V1144.88H299.987V1158H260.641V1066.19ZM327.298 1159.31C320.303 1159.31 315.013 1157.34 311.428 1153.41C307.843 1149.39 306.051 1143.66 306.051 1136.23V1130.98H319.691V1137.28C319.691 1143.22 322.183 1146.2 327.167 1146.2C329.615 1146.2 331.451 1145.5 332.675 1144.1C333.987 1142.61 334.643 1140.25 334.643 1137.02C334.643 1133.17 333.768 1129.8 332.019 1126.92C330.271 1123.94 327.036 1120.4 322.314 1116.29C316.368 1111.05 312.215 1106.33 309.854 1102.13C307.494 1097.84 306.313 1093.04 306.313 1087.7C306.313 1080.44 308.149 1074.85 311.822 1070.91C315.494 1066.89 320.828 1064.88 327.823 1064.88C334.73 1064.88 339.932 1066.89 343.43 1070.91C347.015 1074.85 348.807 1080.53 348.807 1087.96V1091.77H335.167V1087.05C335.167 1083.9 334.555 1081.62 333.331 1080.23C332.107 1078.74 330.314 1078 327.954 1078C323.145 1078 320.74 1080.93 320.74 1086.78C320.74 1090.11 321.615 1093.21 323.363 1096.1C325.199 1098.98 328.478 1102.48 333.2 1106.59C339.233 1111.83 343.386 1116.6 345.659 1120.88C347.933 1125.17 349.069 1130.2 349.069 1135.97C349.069 1143.49 347.19 1149.26 343.43 1153.28C339.758 1157.3 334.38 1159.31 327.298 1159.31Z" fill="#FF7F7F"/>
<path d="M413.735 1159.31C406.74 1159.31 401.45 1157.34 397.865 1153.41C394.28 1149.39 392.488 1143.66 392.488 1136.23V1130.98H406.128V1137.28C406.128 1143.22 408.62 1146.2 413.604 1146.2C416.052 1146.2 417.888 1145.5 419.112 1144.1C420.424 1142.61 421.079 1140.25 421.079 1137.02C421.079 1133.17 420.205 1129.8 418.456 1126.92C416.708 1123.94 413.473 1120.4 408.751 1116.29C402.805 1111.05 398.652 1106.33 396.291 1102.13C393.931 1097.84 392.75 1093.04 392.75 1087.7C392.75 1080.44 394.586 1074.85 398.259 1070.91C401.931 1066.89 407.265 1064.88 414.259 1064.88C421.167 1064.88 426.369 1066.89 429.867 1070.91C433.452 1074.85 435.244 1080.53 435.244 1087.96V1091.77H421.604V1087.05C421.604 1083.9 420.992 1081.62 419.768 1080.23C418.544 1078.74 416.751 1078 414.391 1078C409.582 1078 407.177 1080.93 407.177 1086.78C407.177 1090.11 408.052 1093.21 409.8 1096.1C411.636 1098.98 414.915 1102.48 419.637 1106.59C425.67 1111.83 429.823 1116.6 432.096 1120.88C434.37 1125.17 435.506 1130.2 435.506 1135.97C435.506 1143.49 433.627 1149.26 429.867 1153.28C426.194 1157.3 420.817 1159.31 413.735 1159.31ZM464.763 1159.31C457.768 1159.31 452.434 1157.34 448.762 1153.41C445.09 1149.39 443.254 1143.66 443.254 1136.23V1066.19H457.681V1137.28C457.681 1140.43 458.293 1142.7 459.517 1144.1C460.828 1145.5 462.664 1146.2 465.025 1146.2C467.386 1146.2 469.178 1145.5 470.403 1144.1C471.714 1142.7 472.37 1140.43 472.37 1137.28V1066.19H486.272V1136.23C486.272 1143.66 484.436 1149.39 480.764 1153.41C477.091 1157.34 471.758 1159.31 464.763 1159.31ZM448.238 1046.65H461.091V1060.03H448.238V1046.65ZM468.435 1046.65H481.288V1060.03H468.435V1046.65ZM507.826 1079.31H492.744V1066.19H537.336V1079.31H522.253V1158H507.826V1079.31ZM544.321 1066.19H583.667V1079.31H558.748V1103.57H578.552V1116.69H558.748V1144.88H583.667V1158H544.321V1066.19ZM591.967 1066.19H612.558L621.739 1131.9H622.001L631.182 1066.19H651.773V1158H638.133V1088.49H637.871L627.378 1158H615.312L604.82 1088.49H604.558V1158H591.967V1066.19ZM662.539 1066.19H701.885V1079.31H676.966V1103.57H696.77V1116.69H676.966V1144.88H701.885V1158H662.539V1066.19ZM683.523 1044.95H699.262L685.228 1060.03H674.343L683.523 1044.95ZM710.185 1066.19H728.284L742.317 1121.15H742.58V1066.19H755.433V1158H740.612L723.3 1090.98H723.038V1158H710.185V1066.19ZM779.402 1118.92L761.959 1066.19H777.304L787.14 1099.9H787.402L797.239 1066.19H811.272L793.829 1118.92V1158H779.402V1118.92ZM817.772 1066.19H857.118V1079.31H832.199V1103.57H852.003V1116.69H832.199V1144.88H857.118V1158H817.772V1066.19ZM865.417 1066.19H879.844V1104.88L898.206 1066.19H912.633L895.452 1099.9L912.895 1158H897.812L885.615 1117.08L879.844 1128.75V1158H865.417V1066.19Z" fill="#473939"/>
<path d="M38.2305 760.003H51.4551V795.469L68.2866 760.003H81.5112L65.7618 790.901L81.7517 844.16H67.9259L56.745 806.65L51.4551 817.35V844.16H38.2305V760.003ZM88.0109 760.003H101.236V832.138H122.996V844.16H88.0109V760.003ZM140.027 760.003H157.94L171.646 844.16H158.421L156.017 827.449V827.69H140.988L138.584 844.16H126.321L140.027 760.003ZM154.454 816.268L148.563 774.671H148.322L142.551 816.268H154.454ZM194.902 845.363C188.49 845.363 183.641 843.559 180.354 839.952C177.068 836.266 175.425 831.016 175.425 824.203V819.394H187.929V825.165C187.929 830.615 190.213 833.34 194.781 833.34C197.026 833.34 198.709 832.699 199.831 831.416C201.033 830.054 201.634 827.89 201.634 824.924C201.634 821.398 200.833 818.312 199.23 815.667C197.627 812.942 194.661 809.696 190.333 805.929C184.883 801.12 181.076 796.792 178.912 792.945C176.748 789.017 175.666 784.609 175.666 779.72C175.666 773.068 177.349 767.938 180.715 764.331C184.081 760.644 188.971 758.801 195.382 758.801C201.714 758.801 206.483 760.644 209.689 764.331C212.975 767.938 214.618 773.148 214.618 779.96V783.447H202.115V779.119C202.115 776.234 201.554 774.15 200.432 772.867C199.31 771.505 197.667 770.823 195.503 770.823C191.094 770.823 188.89 773.508 188.89 778.878C188.89 781.924 189.692 784.769 191.295 787.414C192.978 790.059 195.984 793.265 200.312 797.032C205.842 801.841 209.649 806.209 211.733 810.137C213.817 814.064 214.859 818.673 214.859 823.963C214.859 830.855 213.136 836.145 209.689 839.832C206.323 843.519 201.394 845.363 194.902 845.363ZM239.634 845.363C233.222 845.363 228.372 843.559 225.086 839.952C221.8 836.266 220.157 831.016 220.157 824.203V819.394H232.66V825.165C232.66 830.615 234.945 833.34 239.513 833.34C241.757 833.34 243.441 832.699 244.563 831.416C245.765 830.054 246.366 827.89 246.366 824.924C246.366 821.398 245.565 818.312 243.962 815.667C242.359 812.942 239.393 809.696 235.065 805.929C229.615 801.12 225.808 796.792 223.644 792.945C221.48 789.017 220.398 784.609 220.398 779.72C220.398 773.068 222.081 767.938 225.447 764.331C228.813 760.644 233.702 758.801 240.114 758.801C246.446 758.801 251.215 760.644 254.421 764.331C257.707 767.938 259.35 773.148 259.35 779.96V783.447H246.847V779.119C246.847 776.234 246.286 774.15 245.164 772.867C244.042 771.505 242.399 770.823 240.235 770.823C235.826 770.823 233.622 773.508 233.622 778.878C233.622 781.924 234.424 784.769 236.027 787.414C237.71 790.059 240.716 793.265 245.044 797.032C250.574 801.841 254.381 806.209 256.465 810.137C258.549 814.064 259.591 818.673 259.591 823.963C259.591 830.855 257.868 836.145 254.421 839.832C251.055 843.519 246.126 845.363 239.634 845.363ZM264.528 832.378L289.054 772.026H265.731V760.003H303.241V771.785L278.715 832.138H303.241V844.16H264.528V832.378ZM310.731 760.003H323.956V844.16H310.731V760.003ZM333.86 760.003H347.085V795.469L363.916 760.003H377.141L361.392 790.901L377.382 844.16H363.556L352.375 806.65L347.085 817.35V844.16H333.86V760.003ZM402.759 845.363C396.347 845.363 391.458 843.559 388.092 839.952C384.726 836.266 383.042 831.016 383.042 824.203V760.003H396.267V825.165C396.267 828.05 396.828 830.134 397.95 831.416C399.152 832.699 400.836 833.34 403 833.34C405.164 833.34 406.807 832.699 407.929 831.416C409.131 830.134 409.732 828.05 409.732 825.165V760.003H422.476V824.203C422.476 831.016 420.793 836.266 417.427 839.952C414.06 843.559 409.171 845.363 402.759 845.363ZM449.087 845.363C442.675 845.363 437.826 843.559 434.54 839.952C431.254 836.266 429.611 831.016 429.611 824.203V819.394H442.114V825.165C442.114 830.615 444.398 833.34 448.967 833.34C451.211 833.34 452.894 832.699 454.016 831.416C455.218 830.054 455.819 827.89 455.819 824.924C455.819 821.398 455.018 818.312 453.415 815.667C451.812 812.942 448.846 809.696 444.518 805.929C439.068 801.12 435.261 796.792 433.097 792.945C430.933 789.017 429.851 784.609 429.851 779.72C429.851 773.068 431.534 767.938 434.9 764.331C438.267 760.644 443.156 758.801 449.568 758.801C455.9 758.801 460.669 760.644 463.874 764.331C467.161 767.938 468.804 773.148 468.804 779.96V783.447H456.3V779.119C456.3 776.234 455.739 774.15 454.617 772.867C453.495 771.505 451.852 770.823 449.688 770.823C445.28 770.823 443.076 773.508 443.076 778.878C443.076 781.924 443.877 784.769 445.48 787.414C447.163 790.059 450.169 793.265 454.497 797.032C460.027 801.841 463.834 806.209 465.918 810.137C468.002 814.064 469.044 818.673 469.044 823.963C469.044 830.855 467.321 836.145 463.874 839.832C460.508 843.519 455.579 845.363 449.087 845.363Z" fill="#473939"/>
<path d="M55.4226 965.587C49.0106 965.587 44.1615 963.784 40.8754 960.177C37.5893 956.49 35.9462 951.24 35.9462 944.427V939.618H48.4495V945.389C48.4495 950.839 50.7338 953.564 55.3023 953.564C57.5465 953.564 59.2297 952.923 60.3518 951.641C61.554 950.278 62.1551 948.114 62.1551 945.149C62.1551 941.622 61.3536 938.536 59.7506 935.891C58.1476 933.166 55.1821 929.92 50.854 926.153C45.4039 921.344 41.5968 917.016 39.4327 913.169C37.2687 909.242 36.1867 904.834 36.1867 899.944C36.1867 893.292 37.8698 888.162 41.2361 884.556C44.6024 880.869 49.4915 879.025 55.9034 879.025C62.2353 879.025 67.0042 880.869 70.2101 884.556C73.4963 888.162 75.1393 893.372 75.1393 900.185V903.671H62.636V899.343C62.636 896.458 62.075 894.374 60.9529 893.092C59.8308 891.729 58.1877 891.048 56.0237 891.048C51.6154 891.048 49.4113 893.733 49.4113 899.103C49.4113 902.148 50.2128 904.994 51.8158 907.639C53.499 910.284 56.5046 913.49 60.8326 917.257C66.363 922.066 70.1701 926.434 72.254 930.361C74.3379 934.288 75.3798 938.897 75.3798 944.187C75.3798 951.08 73.6566 956.37 70.2101 960.057C66.8439 963.743 61.9147 965.587 55.4226 965.587ZM102.198 965.587C95.7863 965.587 90.8972 963.784 87.5309 960.177C84.1646 956.49 82.4815 951.24 82.4815 944.427V880.228H95.7062V945.389C95.7062 948.275 96.2672 950.358 97.3893 951.641C98.5916 952.923 100.275 953.564 102.439 953.564C104.603 953.564 106.246 952.923 107.368 951.641C108.57 950.358 109.171 948.275 109.171 945.389V880.228H121.915V944.427C121.915 951.24 120.232 956.49 116.866 960.177C113.499 963.784 108.61 965.587 102.198 965.587ZM87.05 862.314H98.832V874.577H87.05V862.314ZM105.565 862.314H117.347V874.577H105.565V862.314ZM141.673 892.25H127.847V880.228H168.724V892.25H154.898V964.385H141.673V892.25ZM175.127 880.228H211.194V892.25H188.351V914.492H206.505V926.514H188.351V952.362H211.194V964.385H175.127V880.228ZM218.802 880.228H237.677L246.093 940.46H246.333L254.749 880.228H273.624V964.385H261.121V900.666H260.88L251.262 964.385H240.202L230.584 900.666H230.343V964.385H218.802V880.228ZM283.493 880.228H319.56V892.25H296.718V914.492H314.871V926.514H296.718V952.362H319.56V964.385H283.493V880.228ZM302.729 860.751H317.156L304.292 874.577H294.313L302.729 860.751ZM327.168 880.228H343.759L356.623 930.602H356.864V880.228H368.645V964.385H355.06L339.191 902.95H338.95V964.385H327.168V880.228ZM390.617 928.558L374.628 880.228H388.694L397.711 911.125H397.951L406.968 880.228H419.832L403.842 928.558V964.385H390.617V928.558ZM425.79 880.228H461.857V892.25H439.014V914.492H457.168V926.514H439.014V952.362H461.857V964.385H425.79V880.228ZM469.465 880.228H482.69V915.694L499.521 880.228H512.746L496.996 911.125L512.986 964.385H499.16L487.979 926.875L482.69 937.575V964.385H469.465V880.228Z" fill="#473939"/>
<path d="M312.265 548.135H297.183V535.019H341.775V548.135H326.692V626.827H312.265V548.135ZM369.101 628.138C362.019 628.138 356.598 626.127 352.838 622.105C349.078 618.083 347.198 612.4 347.198 605.055V556.791C347.198 549.446 349.078 543.763 352.838 539.741C356.598 535.719 362.019 533.708 369.101 533.708C376.183 533.708 381.604 535.719 385.364 539.741C389.124 543.763 391.004 549.446 391.004 556.791V605.055C391.004 612.4 389.124 618.083 385.364 622.105C381.604 626.127 376.183 628.138 369.101 628.138ZM369.101 615.023C374.085 615.023 376.577 612.007 376.577 605.973V555.873C376.577 549.84 374.085 546.823 369.101 546.823C364.117 546.823 361.625 549.84 361.625 555.873V605.973C361.625 612.007 364.117 615.023 369.101 615.023ZM400.76 535.019H422.139C429.571 535.019 434.992 536.768 438.402 540.265C441.812 543.675 443.517 548.965 443.517 556.135V561.775C443.517 571.305 440.369 577.338 434.074 579.874V580.136C437.571 581.185 440.019 583.328 441.418 586.563C442.905 589.798 443.648 594.126 443.648 599.547V615.679C443.648 618.302 443.735 620.444 443.91 622.105C444.085 623.679 444.522 625.253 445.222 626.827H430.532C430.008 625.34 429.658 623.942 429.483 622.63C429.308 621.318 429.221 618.958 429.221 615.548V598.76C429.221 594.563 428.521 591.634 427.122 589.973C425.811 588.311 423.494 587.481 420.171 587.481H415.187V626.827H400.76V535.019ZM420.434 574.365C423.319 574.365 425.461 573.622 426.86 572.136C428.346 570.649 429.09 568.157 429.09 564.66V557.578C429.09 554.255 428.478 551.851 427.254 550.364C426.117 548.878 424.281 548.135 421.745 548.135H415.187V574.365H420.434ZM464.681 548.135H449.598V535.019H494.19V548.135H479.107V626.827H464.681V548.135ZM506.303 535.019H525.845L540.797 626.827H526.37L523.747 608.597V608.859H507.353L504.73 626.827H491.352L506.303 535.019ZM522.042 596.399L515.615 551.02H515.353L509.058 596.399H522.042ZM517.452 513.772H533.19L519.157 528.855H508.271L517.452 513.772ZM547.796 535.019H562.223V573.71L580.585 535.019H595.012L577.83 568.726L595.274 626.827H580.191L567.994 585.907L562.223 597.58V626.827H547.796V535.019Z" fill="#FF7F7F"/>
<path d="M554.9 943.782H539.817V930.667H584.41V943.782H569.327V1022.47H554.9V943.782ZM611.736 1023.79C604.654 1023.79 599.233 1021.77 595.473 1017.75C591.713 1013.73 589.833 1008.05 589.833 1000.7V952.438C589.833 945.094 591.713 939.41 595.473 935.388C599.233 931.366 604.654 929.355 611.736 929.355C618.818 929.355 624.239 931.366 627.999 935.388C631.759 939.41 633.639 945.094 633.639 952.438V1000.7C633.639 1008.05 631.759 1013.73 627.999 1017.75C624.239 1021.77 618.818 1023.79 611.736 1023.79ZM611.736 1010.67C616.72 1010.67 619.212 1007.65 619.212 1001.62V951.52C619.212 945.487 616.72 942.471 611.736 942.471C606.752 942.471 604.26 945.487 604.26 951.52V1001.62C604.26 1007.65 606.752 1010.67 611.736 1010.67ZM643.395 930.667H664.773C672.205 930.667 677.626 932.415 681.036 935.913C684.446 939.323 686.151 944.613 686.151 951.782V957.422C686.151 966.953 683.004 972.986 676.708 975.521V975.784C680.206 976.833 682.654 978.975 684.053 982.21C685.539 985.445 686.283 989.773 686.283 995.194V1011.33C686.283 1013.95 686.37 1016.09 686.545 1017.75C686.72 1019.33 687.157 1020.9 687.856 1022.47H673.167C672.643 1020.99 672.293 1019.59 672.118 1018.28C671.943 1016.97 671.856 1014.61 671.856 1011.2V994.407C671.856 990.211 671.156 987.281 669.757 985.62C668.446 983.959 666.129 983.128 662.806 983.128H657.822V1022.47H643.395V930.667ZM663.068 970.013C665.954 970.013 668.096 969.27 669.495 967.783C670.981 966.297 671.724 963.805 671.724 960.307V953.225C671.724 949.903 671.112 947.498 669.888 946.012C668.752 944.525 666.915 943.782 664.38 943.782H657.822V970.013H663.068ZM707.315 943.782H692.233V930.667H736.825V943.782H721.742V1022.47H707.315V943.782ZM748.938 930.667H768.48L783.432 1022.47H769.005L766.382 1004.24V1004.51H749.987L747.364 1022.47H733.987L748.938 930.667ZM764.677 992.047L758.25 946.667H757.988L751.692 992.047H764.677ZM760.086 909.42H775.825L761.791 924.502H750.906L760.086 909.42ZM790.431 930.667H804.858V969.357L823.219 930.667H837.646L820.465 964.373L837.909 1022.47H822.826L810.629 981.554L804.858 993.227V1022.47H790.431V930.667Z" fill="#FF7F7F"/>
<path d="M668.217 535.019H689.989C697.421 535.019 702.842 536.768 706.252 540.265C709.662 543.675 711.367 548.965 711.367 556.135V559.807C711.367 564.529 710.58 568.376 709.006 571.349C707.52 574.322 705.203 576.464 702.055 577.775V578.038C709.225 580.486 712.809 586.869 712.809 597.186V605.055C712.809 612.138 710.93 617.559 707.17 621.318C703.498 624.991 698.077 626.827 690.907 626.827H668.217V535.019ZM688.284 572.398C691.169 572.398 693.311 571.655 694.71 570.168C696.197 568.682 696.94 566.19 696.94 562.693V557.578C696.94 554.255 696.328 551.851 695.104 550.364C693.967 548.878 692.131 548.135 689.595 548.135H682.644V572.398H688.284ZM690.907 613.712C693.442 613.712 695.322 613.056 696.546 611.744C697.77 610.345 698.383 607.984 698.383 604.662V596.662C698.383 592.465 697.639 589.579 696.153 588.005C694.754 586.344 692.393 585.513 689.071 585.513H682.644V613.712H690.907ZM742.227 628.138C735.232 628.138 729.898 626.171 726.226 622.237C722.554 618.214 720.718 612.487 720.718 605.055V535.019H735.145V606.105C735.145 609.252 735.757 611.526 736.981 612.925C738.292 614.324 740.128 615.023 742.489 615.023C744.85 615.023 746.642 614.324 747.866 612.925C749.178 611.526 749.834 609.252 749.834 606.105V535.019H763.736V605.055C763.736 612.487 761.9 618.214 758.228 622.237C754.555 626.171 749.222 628.138 742.227 628.138ZM774.011 535.019H795.389C802.821 535.019 808.242 536.768 811.652 540.265C815.062 543.675 816.767 548.965 816.767 556.135V561.775C816.767 571.305 813.62 577.338 807.324 579.874V580.136C810.822 581.185 813.27 583.328 814.669 586.563C816.155 589.798 816.898 594.126 816.898 599.547V615.679C816.898 618.302 816.986 620.444 817.161 622.105C817.336 623.679 817.773 625.253 818.472 626.827H803.783C803.258 625.34 802.909 623.942 802.734 622.63C802.559 621.318 802.472 618.958 802.472 615.548V598.76C802.472 594.563 801.772 591.634 800.373 589.973C799.062 588.311 796.744 587.481 793.422 587.481H788.438V626.827H774.011V535.019ZM793.684 574.365C796.57 574.365 798.712 573.622 800.111 572.136C801.597 570.649 802.34 568.157 802.34 564.66V557.578C802.34 554.255 801.728 551.851 800.504 550.364C799.368 548.878 797.531 548.135 794.996 548.135H788.438V574.365H793.684ZM826.908 535.019H841.335V573.71L859.697 535.019H874.124L856.942 568.726L874.386 626.827H859.303L847.106 585.907L841.335 597.58V626.827H826.908V535.019ZM900.018 628.138C892.936 628.138 887.515 626.127 883.755 622.105C879.995 618.083 878.116 612.4 878.116 605.055V556.791C878.116 549.446 879.995 543.763 883.755 539.741C887.515 535.719 892.936 533.708 900.018 533.708C907.101 533.708 912.522 535.719 916.281 539.741C920.041 543.763 921.921 549.446 921.921 556.791V605.055C921.921 612.4 920.041 618.083 916.281 622.105C912.522 626.127 907.101 628.138 900.018 628.138ZM900.018 615.023C905.002 615.023 907.494 612.007 907.494 605.973V555.873C907.494 549.84 905.002 546.823 900.018 546.823C895.034 546.823 892.542 549.84 892.542 555.873V605.973C892.542 612.007 895.034 615.023 900.018 615.023ZM931.678 535.019H946.104V613.712H969.843V626.827H931.678V535.019ZM977.795 548.135H962.712V535.019H1007.3V548.135H992.221V626.827H977.795V548.135Z" fill="#473939"/>
<path d="M679.496 666.173H664.414V653.058H709.006V666.173H693.923V744.865H679.496V666.173ZM736.332 746.177C729.25 746.177 723.829 744.166 720.069 740.144C716.309 736.122 714.429 730.439 714.429 723.094V674.829C714.429 667.485 716.309 661.801 720.069 657.779C723.829 653.757 729.25 651.746 736.332 651.746C743.414 651.746 748.835 653.757 752.595 657.779C756.355 661.801 758.235 667.485 758.235 674.829V723.094C758.235 730.439 756.355 736.122 752.595 740.144C748.835 744.166 743.414 746.177 736.332 746.177ZM736.332 733.062C741.316 733.062 743.808 730.045 743.808 724.012V673.911C743.808 667.878 741.316 664.862 736.332 664.862C731.348 664.862 728.856 667.878 728.856 673.911V724.012C728.856 730.045 731.348 733.062 736.332 733.062ZM767.991 653.058H789.369C796.802 653.058 802.223 654.807 805.633 658.304C809.043 661.714 810.748 667.004 810.748 674.174V679.813C810.748 689.344 807.6 695.377 801.304 697.912V698.175C804.802 699.224 807.25 701.366 808.649 704.601C810.136 707.836 810.879 712.164 810.879 717.585V733.717C810.879 736.34 810.966 738.483 811.141 740.144C811.316 741.718 811.753 743.292 812.453 744.865H797.763C797.239 743.379 796.889 741.98 796.714 740.669C796.539 739.357 796.452 736.996 796.452 733.586V716.799C796.452 712.602 795.752 709.673 794.353 708.011C793.042 706.35 790.725 705.519 787.402 705.519H782.418V744.865H767.991V653.058ZM787.664 692.404C790.55 692.404 792.692 691.661 794.091 690.174C795.577 688.688 796.321 686.196 796.321 682.699V675.616C796.321 672.294 795.709 669.889 794.484 668.403C793.348 666.916 791.512 666.173 788.976 666.173H782.418V692.404H787.664ZM831.911 666.173H816.829V653.058H861.421V666.173H846.338V744.865H831.911V666.173ZM873.534 653.058H893.076L908.028 744.865H893.601L890.978 726.635V726.897H874.584L871.961 744.865H858.583L873.534 653.058ZM889.273 714.438L882.846 669.059H882.584L876.289 714.438H889.273ZM884.682 631.811H900.421L886.387 646.894H875.502L884.682 631.811ZM915.027 653.058H929.454V691.748L947.816 653.058H962.243L945.061 686.764L962.505 744.865H947.422L935.225 703.945L929.454 715.618V744.865H915.027V653.058Z" fill="#473939"/>
<path d="M51.2404 729.439L51.2404 711.405L149.606 711.405L149.606 681.731L166 681.731L166 729.439L51.2404 729.439ZM51.2404 673.083L51.2404 655.05L166 655.05L166 673.083L51.2404 673.083ZM51.2404 641.544L51.2404 618.92L119.932 601.378L119.932 601.05L51.2404 601.05L51.2404 584.984L166 584.984L166 603.509L82.2255 625.15L82.2255 625.477L166 625.477L166 641.544L51.2404 641.544ZM149.934 575.187L67.6346 541.743L67.6346 573.547L51.2404 573.547L51.2404 522.397L67.3067 522.397L149.606 555.842L149.606 522.397L166 522.397L166 575.187L149.934 575.187ZM51.2404 512.183L51.2404 463L67.6346 463L67.6346 494.149L97.9639 494.149L97.9639 469.394L114.358 469.394L114.358 494.149L149.606 494.149L149.606 463L166 463L166 512.183L51.2404 512.183ZM51.2404 452.626L51.2404 425.903C51.2404 416.613 53.4263 409.837 57.7981 405.574C62.0606 401.312 68.6729 399.181 77.6351 399.181L84.6846 399.181C96.5977 399.181 104.139 403.115 107.309 410.985L107.637 410.985C108.948 406.613 111.626 403.552 115.67 401.804C119.714 399.946 125.124 399.017 131.9 399.017L152.065 399.017C155.344 399.017 158.021 398.907 160.098 398.689C162.065 398.47 164.033 397.924 166 397.049L166 415.411C164.142 416.067 162.393 416.504 160.754 416.723C159.114 416.941 156.163 417.05 151.901 417.05L130.916 417.05C125.67 417.05 122.009 417.925 119.932 419.673C117.856 421.313 116.817 424.209 116.817 428.362L116.817 434.592L166 434.592L166 452.626L51.2404 452.626ZM100.423 428.035C100.423 424.428 99.4941 421.75 97.636 420.001C95.778 418.143 92.6631 417.214 88.2913 417.214L79.4384 417.214C75.2852 417.214 72.2796 417.979 70.4216 419.51C68.5636 420.93 67.6346 423.226 67.6346 426.395L67.6346 434.592L100.423 434.592L100.423 428.035ZM67.6346 372.726L67.6346 391.579L51.2404 391.579L51.2404 335.839L67.6346 335.839L67.6346 354.692L166 354.692L166 372.726L67.6346 372.726ZM167.639 301.681C167.639 310.534 165.126 317.31 160.098 322.01C155.07 326.71 147.966 329.06 138.786 329.06L78.4548 329.06C69.274 329.06 62.1698 326.71 57.1423 322.01C52.1147 317.31 49.6009 310.534 49.6009 301.681C49.6009 292.828 52.1147 286.052 57.1423 281.352C62.1698 276.653 69.274 274.303 78.4548 274.303L138.786 274.303C147.966 274.303 155.07 276.653 160.098 281.352C165.126 286.052 167.639 292.828 167.639 301.681ZM151.245 301.681C151.245 295.451 147.474 292.336 139.933 292.336L77.3072 292.336C69.7658 292.336 65.9952 295.451 65.9952 301.681C65.9952 307.911 69.7658 311.026 77.3072 311.026L139.933 311.026C147.474 311.026 151.245 307.911 151.245 301.681ZM51.2404 262.107L51.2404 235.384C51.2404 226.094 53.4263 219.318 57.7981 215.056C62.0605 210.793 68.6729 208.662 77.6351 208.662L84.6846 208.662C96.5977 208.662 104.139 212.596 107.309 220.466L107.637 220.466C108.948 216.094 111.626 213.034 115.67 211.285C119.714 209.427 125.124 208.498 131.9 208.498L152.065 208.498C155.344 208.498 158.021 208.389 160.098 208.17C162.065 207.951 164.033 207.405 166 206.531L166 224.892C164.142 225.548 162.393 225.985 160.754 226.204C159.114 226.422 156.163 226.532 151.901 226.532L130.916 226.532C125.67 226.532 122.009 227.406 119.932 229.155C117.856 230.794 116.817 233.69 116.817 237.844L116.817 244.073L166 244.073L166 262.107L51.2404 262.107ZM100.423 237.516C100.423 233.909 99.494 231.231 97.636 229.482C95.778 227.624 92.6631 226.695 88.2913 226.695L79.4384 226.695C75.2852 226.695 72.2796 227.461 70.4216 228.991C68.5636 230.411 67.6346 232.707 67.6346 235.876L67.6346 244.073L100.423 244.073L100.423 237.516ZM67.6346 182.207L67.6346 201.06L51.2404 201.06L51.2404 145.32L67.6346 145.32L67.6346 164.173L166 164.173L166 182.207L67.6346 182.207ZM51.2404 130.178L51.2404 105.751L166 87.0615L166 105.095L143.212 108.374L143.54 108.374L143.54 128.867L166 132.146L166 148.868L51.2404 130.178ZM127.965 110.505L71.2413 118.538L71.2413 118.866L127.965 126.735L127.965 110.505ZM24.6817 116.243L24.6817 96.5701L43.5351 114.112L43.5351 127.719L24.6817 116.243ZM51.2403 78.3123L51.2403 60.2786L99.6033 60.2786L51.2403 37.3267L51.2403 19.2931L93.3735 40.7695L166 18.9652L166 37.8185L114.85 53.0652L129.441 60.2786L166 60.2786L166 78.3123L51.2403 78.3123Z" fill="#FF7F7F"/>
<path d="M223.693 196.513H258.011L273.313 306.026H273.75L289.051 196.513H323.37V349.526H300.636V233.673H300.199L282.712 349.526H262.602L245.115 233.673H244.678V349.526H223.693V196.513ZM359.893 196.513H392.463L417.382 349.526H393.337L388.966 319.142V319.579H361.642L357.27 349.526H334.974L359.893 196.513ZM386.124 298.813L375.413 223.181H374.976L364.483 298.813H386.124ZM462.502 351.712C450.99 351.712 442.173 348.433 436.053 341.875C430.078 335.317 427.091 326.064 427.091 314.114V231.924C427.091 219.975 430.078 210.721 436.053 204.164C442.173 197.606 450.99 194.327 462.502 194.327C474.015 194.327 482.758 197.606 488.733 204.164C494.853 210.721 497.914 219.975 497.914 231.924V248.1H475.18V230.394C475.18 220.922 471.173 216.186 463.158 216.186C455.143 216.186 451.136 220.922 451.136 230.394V315.863C451.136 325.189 455.143 329.853 463.158 329.853C471.173 329.853 475.18 325.189 475.18 315.863V292.474H497.914V314.114C497.914 326.064 494.853 335.317 488.733 341.875C482.758 348.433 474.015 351.712 462.502 351.712ZM530.88 196.513H563.45L588.369 349.526H564.324L559.952 319.142V319.579H532.628L528.257 349.526H505.961L530.88 196.513ZM557.111 298.813L546.4 223.181H545.962L535.47 298.813H557.111ZM600.034 196.513H635.665C648.051 196.513 657.086 199.427 662.77 205.256C668.453 210.94 671.295 219.756 671.295 231.706V241.105C671.295 256.989 666.049 267.044 655.556 271.271V271.708C661.385 273.456 665.466 277.027 667.797 282.419C670.275 287.811 671.513 295.024 671.513 304.059V330.946C671.513 335.317 671.659 338.888 671.95 341.656C672.242 344.28 672.971 346.903 674.136 349.526H649.654C648.78 347.048 648.197 344.717 647.906 342.531C647.614 340.345 647.468 336.41 647.468 330.727V302.747C647.468 295.753 646.303 290.871 643.971 288.102C641.785 285.333 637.923 283.949 632.386 283.949H624.079V349.526H600.034V196.513ZM632.823 262.09C637.632 262.09 641.202 260.851 643.534 258.374C646.011 255.896 647.25 251.743 647.25 245.914V234.11C647.25 228.573 646.23 224.565 644.19 222.088C642.295 219.611 639.235 218.372 635.009 218.372H624.079V262.09H632.823ZM722.952 351.712C711.148 351.712 702.113 348.36 695.847 341.656C689.58 334.953 686.447 325.481 686.447 313.24V232.799C686.447 220.558 689.58 211.086 695.847 204.382C702.113 197.679 711.148 194.327 722.952 194.327C734.756 194.327 743.791 197.679 750.057 204.382C756.323 211.086 759.456 220.558 759.456 232.799V313.24C759.456 325.481 756.323 334.953 750.057 341.656C743.791 348.36 734.756 351.712 722.952 351.712ZM722.952 329.853C731.258 329.853 735.411 324.825 735.411 314.77V231.269C735.411 221.214 731.258 216.186 722.952 216.186C714.645 216.186 710.492 221.214 710.492 231.269V314.77C710.492 324.825 714.645 329.853 722.952 329.853ZM775.717 196.513H805.883L829.272 288.102H829.709V196.513H851.131V349.526H826.43L797.576 237.826H797.139V349.526H775.717V196.513ZM903.758 351.712C891.954 351.712 882.919 348.36 876.653 341.656C870.387 334.953 867.254 325.481 867.254 313.24V232.799C867.254 220.558 870.387 211.086 876.653 204.382C882.919 197.679 891.954 194.327 903.758 194.327C915.562 194.327 924.597 197.679 930.863 204.382C937.129 211.086 940.262 220.558 940.262 232.799V313.24C940.262 325.481 937.129 334.953 930.863 341.656C924.597 348.36 915.562 351.712 903.758 351.712ZM903.758 329.853C912.064 329.853 916.218 324.825 916.218 314.77V231.269C916.218 221.214 912.064 216.186 903.758 216.186C895.452 216.186 891.298 221.214 891.298 231.269V314.77C891.298 324.825 895.452 329.853 903.758 329.853ZM956.524 196.513H980.568V260.997L1011.17 196.513H1035.22L1006.58 252.69L1035.65 349.526H1010.52L990.186 281.326L980.568 300.78V349.526H956.524V196.513Z" fill="#473939"/>
</g>
<defs>
<clipPath id="clip0_93_181">
<rect width="1087" height="1174" fill="white"/>
</clipPath>
</defs>
</svg>
